<?xml version="1.0" encoding="UTF-8" standalone="no"?>
<!-- Created with Inkscape (http://www.inkscape.org/) -->

<svg
   xmlns:dc="http://purl.org/dc/elements/1.1/"
   xmlns:cc="http://creativecommons.org/ns#"
   xmlns:rdf="http://www.w3.org/1999/02/22-rdf-syntax-ns#"
   xmlns:svg="http://www.w3.org/2000/svg"
   xmlns="http://www.w3.org/2000/svg"
   xmlns:sodipodi="http://sodipodi.sourceforge.net/DTD/sodipodi-0.dtd"
   xmlns:inkscape="http://www.inkscape.org/namespaces/inkscape"
   id="svg2"
   version="1.1"
   inkscape:version="0.91 r"
   xml:space="preserve"
   width="1001.3125"
   height="271.86133"
   viewBox="0 0 1001.3125 271.86133"
   sodipodi:docname="helios_logo2.svg"><metadata
     id="metadata8"><rdf:RDF><cc:Work
         rdf:about=""><dc:format>image/svg+xml</dc:format><dc:type
           rdf:resource="http://purl.org/dc/dcmitype/StillImage" /><dc:title /></cc:Work></rdf:RDF></metadata><defs
     id="defs6" /><sodipodi:namedview
     pagecolor="#ffffff"
     bordercolor="#666666"
     borderopacity="1"
     objecttolerance="10"
     gridtolerance="10"
     guidetolerance="10"
     inkscape:pageopacity="0"
     inkscape:pageshadow="2"
     inkscape:window-width="1920"
     inkscape:window-height="1031"
     id="namedview4"
     showgrid="false"
     fit-margin-top="0"
     fit-margin-left="0"
     fit-margin-right="0"
     fit-margin-bottom="0"
     inkscape:zoom="0.6675088"
     inkscape:cx="-16.356174"
     inkscape:cy="265.07111"
     inkscape:window-x="0"
     inkscape:window-y="32"
     inkscape:window-maximized="1"
     inkscape:current-layer="g12" /><g
     id="g10"
     inkscape:groupmode="layer"
     inkscape:label="ink_ext_XXXXXX"
     transform="matrix(1.25,0,0,-1.25,-5.4822505,729.02422)"><g
       id="g12"
       transform="matrix(0.1,0,0,0.1,5.6144068,-4.8728814)"><path
         style="font-style:normal;font-weight:normal;font-size:2415.20874023px;line-height:125%;font-family:sans-serif;letter-spacing:0px;word-spacing:0px;opacity:1;fill:#dcd1b4;fill-opacity:1;stroke:none;stroke-width:1px;stroke-linecap:butt;stroke-linejoin:miter;stroke-opacity:1"
         d="m 559.48047,277.11328 c -3.82408,0 -6.64172,0.90539 -8.45313,2.7168 -1.8114,1.71077 -2.71679,4.67963 -2.71679,8.90625 l 0,29.43555 c 0,8.35259 3.72303,12.52734 11.16992,12.52734 l 35.02148,0 c 1.81141,0 3.42121,-0.40196 4.83008,-1.20703 1.50951,-0.90571 2.7671,-2.01208 3.77344,-3.32031 1.00634,-1.30824 1.7605,-2.66731 2.26367,-4.07618 0.6038,-1.40887 0.90625,-2.71622 0.90625,-3.92382 l 0,-29.43555 c 0,-4.22662 -1.10637,-7.19548 -3.32031,-8.90625 -2.11331,-1.81141 -4.93095,-2.7168 -8.45313,-2.7168 l -35.02148,0 z m -94.05664,19.32031 c -3.92472,0 -6.69064,1.10833 -8.30078,3.32227 -1.61014,2.21394 -2.41602,4.93011 -2.41602,8.15039 l 0,225.51953 c 0,3.82408 0.80588,6.74319 2.41602,8.75586 1.61014,1.91204 4.37606,2.86914 8.30078,2.86914 l 35.02148,0 c 3.42155,0 6.18943,-0.9571 8.30274,-2.86914 2.21394,-2.01267 3.32031,-4.93178 3.32031,-8.75586 l 0,-225.51953 c 0,-1.71077 -0.35221,-3.27082 -1.05664,-4.67969 -0.6038,-1.40887 -1.40968,-2.61671 -2.41602,-3.62304 -0.9057,-1.00634 -1.9106,-1.76051 -3.01758,-2.26368 -1.10697,-0.6038 -2.16358,-0.90625 -3.16992,-0.90625 l -36.98437,0 z M 12.191406,320.88867 c -1.91204,0 -3.4720829,0.70441 -4.6796872,2.11328 -1.1069707,1.30824 -1.7118664,2.81657 -1.8125,4.52735 l 0,211.63281 c 0.1006336,3.92471 2.2655722,5.88867 6.4921872,5.88867 l 44.378906,0 c 2.314576,0 4.125356,-0.55514 5.433594,-1.66211 1.408872,-1.2076 2.113282,-2.86716 2.113282,-4.98047 l 0,-85.74023 75.023432,0 0,85.74023 c 0,2.21394 0.60295,3.8735 1.81055,4.98047 1.30824,1.10697 2.96975,1.66211 4.98242,1.66211 l 44.68164,0 c 2.11331,0 3.82263,-0.55514 5.13086,-1.66211 1.30824,-1.10697 1.96289,-2.76653 1.96289,-4.98047 l 0,-211.17968 c 0,-2.21395 -0.75416,-3.82375 -2.26367,-4.83008 -1.5095,-1.00634 -3.27053,-1.50977 -5.2832,-1.50977 l -44.22852,0 c -2.01267,0 -3.67418,0.65465 -4.98242,1.96289 -1.2076,1.30824 -1.81055,2.86633 -1.81055,4.67774 l 0,71.55078 -75.023432,0 0,-71.55078 c -10e-7,-1.91204 -0.803924,-3.47013 -2.414063,-4.67774 -1.610139,-1.30824 -3.170182,-1.96289 -4.679687,-1.96289 l -44.832032,0 z m 921.306644,28.5293 c -10.46591,0 -19.97544,1.35906 -28.5293,4.07617 -8.55386,2.61648 -15.90041,6.38926 -22.03906,11.32031 -3.49157,2.74746 -6.50986,5.83188 -9.08985,9.23047 a 161.94753,161.94753 0 0 1 19.49219,76.72461 161.94753,161.94753 0 0 1 -0.3457,6.90625 c 0.56961,0.34468 1.13108,0.69221 1.71875,1.03125 7.84943,4.52852 17.81263,8.40277 29.88867,11.62305 3.82408,1.2076 7.24466,2.26422 10.26367,3.16992 3.11965,0.9057 5.7363,1.96232 7.84961,3.16992 2.11331,1.10697 3.72311,2.51579 4.83008,4.22656 1.10697,1.61014 1.66016,3.82289 1.66016,6.64063 0,3.11964 -1.00686,5.53532 -3.01954,7.24609 -1.91204,1.71078 -4.22625,2.96837 -6.94335,3.77344 -2.71711,0.70444 -5.58451,1.15811 -8.60352,1.35938 -2.91838,0.10063 -5.33405,0.15039 -7.24609,0.15039 -0.80507,0 -2.31341,-0.25074 -4.52735,-0.75391 -2.21394,-0.50317 -4.78084,-1.30904 -7.69922,-2.41602 -2.91837,-1.2076 -5.98675,-2.71789 -9.20703,-4.52929 -3.11964,-1.91204 -6.03875,-4.22625 -8.75586,-6.94336 -1.08998,-1.0524 -2.10899,-1.9498 -3.05859,-2.69336 a 161.94753,161.94753 0 0 1 -18.08984,48.0625 c 0.74856,0.59086 1.50629,1.17024 2.27929,1.72851 5.43422,3.82408 11.17096,6.99393 17.20899,9.50977 6.03802,2.41521 12.27624,4.17623 18.71679,5.2832 6.44056,1.10697 12.78025,1.66016 19.01953,1.66016 10.96908,0 21.18497,-1.40882 30.64454,-4.22656 9.5602,-2.81775 17.81213,-6.89298 24.75586,-12.22657 6.94372,-5.33358 12.37802,-11.92596 16.30272,-19.77539 4.0254,-7.84942 6.0371,-16.75601 6.0371,-26.71875 0,-9.96273 -1.56,-18.41565 -4.6797,-25.35937 -3.01898,-6.94373 -7.29519,-12.88145 -12.83005,-17.8125 -5.53485,-5.03169 -12.07552,-9.25814 -19.62304,-12.67969 -7.54753,-3.42154 -15.85117,-6.59139 -24.90821,-9.50976 -2.41521,-0.70444 -5.08162,-1.30738 -8,-1.81055 -2.81774,-0.6038 -5.53391,-1.35797 -8.15039,-2.26367 -2.51584,-0.90571 -4.68078,-2.06379 -6.49219,-3.47266 -1.71077,-1.5095 -2.66592,-3.57298 -2.86718,-6.18945 -0.20127,-3.52218 1.15584,-6.13884 4.07422,-7.84961 2.91837,-1.71077 6.84434,-2.56641 11.77539,-2.56641 3.92471,0 8.15117,0.70441 12.67968,2.11328 4.52852,1.30824 8.554,3.9249 12.07618,7.84961 0.80507,1.00634 1.71046,1.86197 2.71679,2.56641 1.00634,0.70443 2.06295,1.20786 3.16992,1.50976 1.10698,0.30191 2.26506,0.35166 3.47266,0.15039 1.20761,-0.3019 2.41544,-0.9546 3.62305,-1.96093 3.82408,-3.82408 7.4954,-7.29637 11.01758,-10.41602 3.62281,-3.11964 7.39755,-6.28949 11.32226,-9.50976 2.31458,-2.01268 3.42095,-3.87517 3.32031,-5.58594 0,-1.81141 -0.85563,-3.72366 -2.5664,-5.73633 -4.72979,-4.93105 -9.50943,-9.15751 -14.33985,-12.67969 -4.72978,-3.62281 -9.61089,-6.53996 -14.64257,-8.7539 -5.03169,-2.31458 -10.31476,-3.97609 -15.84961,-4.98243 -5.53486,-1.10697 -11.47258,-1.66015 -17.8125,-1.66015 z m -603.77344,0.90625 c -9.15767,0 -17.86132,1.20784 -26.11328,3.62305 -8.25197,2.4152 -15.90096,5.78603 -22.94531,10.11328 -7.04436,4.32725 -13.43381,9.56056 -19.16993,15.69922 -5.63548,6.03802 -10.46684,12.6782 -14.49218,19.92382 -3.92472,7.24563 -6.99309,15.04584 -9.20703,23.39844 -2.11331,8.25196 -3.16993,16.80635 -3.16993,25.66211 0,14.18935 2.71617,27.32044 8.15039,39.39648 5.43422,12.07605 12.78077,22.59243 22.03907,31.54883 9.2583,8.85577 20.02542,15.80035 32.30273,20.83203 12.27731,5.03169 25.31084,7.54688 39.09766,7.54688 12.37794,0 24.10021,-2.26445 35.16992,-6.79297 11.06971,-4.62915 21.03291,-11.01859 29.88867,-19.16992 1.50951,-1.10697 2.81881,-2.36457 3.92578,-3.77344 1.10697,-1.5095 1.66016,-3.27053 1.66016,-5.2832 0,-1.10697 -0.15123,-2.16359 -0.45313,-3.16992 -0.3019,-1.10697 -1.00631,-2.31481 -2.11328,-3.62305 l -16.00195,-18.11524 c -1.71077,-1.71077 -3.26886,-3.01812 -4.67774,-3.92382 -1.30823,-0.90571 -2.61754,-1.35938 -3.92578,-1.35938 -1.30823,0 -2.56583,0.35221 -3.77343,1.05664 -1.10698,0.6038 -2.46604,1.56091 -4.07618,2.86914 -1.8114,1.81141 -4.22708,3.57243 -7.24609,5.28321 -2.91838,1.61014 -6.18773,3.06871 -9.81055,4.37695 -3.52218,1.2076 -7.19545,2.21446 -11.01953,3.01953 -3.82408,0.70444 -7.54711,1.05664 -11.16992,1.05664 -4.02535,0 -8.30351,-0.55318 -12.83203,-1.66015 -4.52852,-1.10698 -8.80473,-2.91971 -12.83008,-5.43555 -4.02535,-2.61648 -7.59715,-6.08682 -10.7168,-10.41406 -3.01901,-4.32725 -5.03272,-9.71179 -6.03906,-16.15235 l 108.6836,0 c 6.33992,0 11.12151,-0.3522 14.34179,-1.05664 3.32091,-0.80507 5.68488,-2.16413 7.09375,-4.07617 1.40887,-2.01267 2.16304,-4.67909 2.26367,-8 0.20127,-3.32091 0.30274,-7.59713 0.30274,-12.83008 0,-8.05069 -1.15808,-15.85091 -3.47266,-23.39844 -2.21394,-7.64816 -5.38378,-14.79177 -9.50976,-21.43359 -4.12599,-6.74246 -9.05685,-12.93287 -14.79297,-18.56836 -5.73612,-5.63549 -12.07581,-10.46489 -19.01953,-14.49023 -6.8431,-4.02535 -14.18964,-7.14544 -22.03907,-9.35938 -7.84942,-2.21394 -15.95013,-3.32031 -24.30273,-3.32031 z m 229.75586,3.01758 c -3.82408,0 -6.64172,1.15808 -8.45313,3.47265 -1.8114,2.31458 -2.71679,5.08246 -2.71679,8.30274 l 0,168.30859 c 0,7.7488 3.72303,11.625 11.16992,11.625 l 34.56836,0 c 2.02993,0 3.81206,-0.26194 5.35742,-0.77344 a 161.94753,161.94753 0 0 1 -29.96875,-93.50781 161.94753,161.94753 0 0 1 31.11719,-95.16601 c -0.82047,-0.57071 -1.67885,-1.03291 -2.58203,-1.35547 -1.40888,-0.60381 -2.71623,-0.90625 -3.92383,-0.90625 l -34.56836,0 z m -230.8125,43.02148 c 5.43422,0 10.1641,0.70441 14.18945,2.11328 4.12598,1.40887 7.7495,3.37088 10.86914,5.88672 3.22028,2.51584 6.03792,5.43495 8.45313,8.75586 2.51584,3.32091 4.83005,6.94443 6.94336,10.86914 l -77.13477,0 c 1.61014,-3.42154 3.67166,-6.79432 6.1875,-10.11523 2.61648,-3.32092 5.53558,-6.28782 8.75586,-8.9043 3.22028,-2.61648 6.64086,-4.67995 10.26367,-6.18945 3.72345,-1.61014 7.54794,-2.41602 11.47266,-2.41602 z"
         transform="matrix(8,0,0,-8,-57.879814,8097.8288)"
         id="text4252-5-9-0-3"
         inkscape:connector-curvature="0" /><circle
         style="font-style:normal;font-weight:normal;font-size:40px;line-height:125%;font-family:sans-serif;letter-spacing:0px;word-spacing:0px;opacity:1;fill:#fab87f;fill-opacity:1;fill-rule:evenodd;stroke:none;stroke-width:1;stroke-linecap:butt;stroke-linejoin:miter;stroke-miterlimit:50;stroke-dasharray:none;stroke-opacity:1"
         id="path4250-7-1-1-7"
         cx="5793.1963"
         cy="-4491.6665"
         r="581.48199"
         transform="scale(1,-1)" /></g></g></svg>