<?xml version="1.0" encoding="UTF-8" standalone="no"?>
<svg
   xmlns:dc="http://purl.org/dc/elements/1.1/"
   xmlns:cc="http://creativecommons.org/ns#"
   xmlns:rdf="http://www.w3.org/1999/02/22-rdf-syntax-ns#"
   xmlns:svg="http://www.w3.org/2000/svg"
   xmlns="http://www.w3.org/2000/svg"
   xmlns:sodipodi="http://sodipodi.sourceforge.net/DTD/sodipodi-0.dtd"
   xmlns:inkscape="http://www.inkscape.org/namespaces/inkscape"
   data-name="Layer 1"
   viewBox="0 0 463.18643 463.18643"
   x="0px"
   y="0px"
   id="svg4214"
   version="1.1"
   inkscape:version="0.91 r"
   sodipodi:docname="icon_delete.svg"
   width="463.18643"
   height="463.18643">
  <metadata
     id="metadata4228">
    <rdf:RDF>
      <cc:Work
         rdf:about="">
        <dc:format>image/svg+xml</dc:format>
        <dc:type
           rdf:resource="http://purl.org/dc/dcmitype/StillImage" />
        <dc:title>d10</dc:title>
      </cc:Work>
    </rdf:RDF>
  </metadata>
  <defs
     id="defs4226" />
  <sodipodi:namedview
     pagecolor="#ffffff"
     bordercolor="#666666"
     borderopacity="1"
     objecttolerance="10"
     gridtolerance="10"
     guidetolerance="10"
     inkscape:pageopacity="0"
     inkscape:pageshadow="2"
     inkscape:window-width="1920"
     inkscape:window-height="1031"
     id="namedview4224"
     showgrid="false"
     fit-margin-top="0"
     fit-margin-left="0"
     fit-margin-right="0"
     fit-margin-bottom="0"
     inkscape:zoom="1.0429825"
     inkscape:cx="132.42441"
     inkscape:cy="354.54168"
     inkscape:window-x="0"
     inkscape:window-y="32"
     inkscape:window-maximized="1"
     inkscape:current-layer="svg4214"
     inkscape:snap-page="true" />
  <title
     id="title4216">d10</title>
  <path
     id="path4218"
     style="opacity:1;fill:#822339;fill-opacity:1"
     d="m 359.72393,334.07038 c 19.07774,17.93829 25.72425,39.23639 6.00378,59.23437 -19.72043,19.99802 -40.90166,13.9066 -59.26358,-4.98121 L 230.38698,310.026 c -26.776,28.4851 -50.11914,53.62505 -73.79831,78.42897 -18.21586,19.09233 -39.71845,24.70172 -59.205171,4.64528 -19.486749,-20.05644 -12.562684,-41.25226 6.398171,-59.23439 24.16121,-22.93418 48.29321,-45.88292 82.3877,-78.28289 -29.33234,-24.83319 -55.787,-46.51105 -81.2775,-69.21149 -20.450821,-18.23047 -28.090675,-40.7556 -6.018388,-61.6593 20.450838,-19.31144 41.573638,-11.39402 59.263618,7.47917 22.74424,24.26348 45.37165,48.61456 73.60841,78.88179 29.21548,-31.17291 52.50023,-56.50274 76.26701,-81.42354 17.25175,-18.09899 37.98015,-22.61278 56.63425,-4.83518 20.27554,19.34067 15.26508,40.79944 -3.82724,59.17601 -24.76013,23.82521 -49.91466,47.2122 -80.5325,76.10631 29.36157,27.22885 54.5015,50.48437 79.4369,73.97364 z"
     inkscape:connector-curvature="0"
     sodipodi:nodetypes="cscccsccccccccccc" />
</svg>
