<?xml version="1.0" encoding="UTF-8" standalone="no"?>
<svg
   xmlns:dc="http://purl.org/dc/elements/1.1/"
   xmlns:cc="http://creativecommons.org/ns#"
   xmlns:rdf="http://www.w3.org/1999/02/22-rdf-syntax-ns#"
   xmlns:svg="http://www.w3.org/2000/svg"
   xmlns="http://www.w3.org/2000/svg"
   xmlns:sodipodi="http://sodipodi.sourceforge.net/DTD/sodipodi-0.dtd"
   xmlns:inkscape="http://www.inkscape.org/namespaces/inkscape"
   version="1.1"
   x="0px"
   y="0px"
   viewBox="0 0 48 48"
   xml:space="preserve"
   id="svg9264"
   inkscape:version="0.91 r"
   sodipodi:docname="user.svg"
   width="48"
   height="48"><metadata
     id="metadata9278"><rdf:RDF><cc:Work
         rdf:about=""><dc:format>image/svg+xml</dc:format><dc:type
           rdf:resource="http://purl.org/dc/dcmitype/StillImage" /><dc:title></dc:title></cc:Work></rdf:RDF></metadata><defs
     id="defs9276" /><sodipodi:namedview
     pagecolor="#ffffff"
     bordercolor="#666666"
     borderopacity="1"
     objecttolerance="10"
     gridtolerance="10"
     guidetolerance="10"
     inkscape:pageopacity="0"
     inkscape:pageshadow="2"
     inkscape:window-width="1920"
     inkscape:window-height="1031"
     id="namedview9274"
     showgrid="false"
     fit-margin-top="0"
     fit-margin-left="0"
     fit-margin-right="0"
     fit-margin-bottom="0"
     inkscape:zoom="3.776"
     inkscape:cx="39.235654"
     inkscape:cy="28.736464"
     inkscape:window-x="0"
     inkscape:window-y="32"
     inkscape:window-maximized="1"
     inkscape:current-layer="svg9264" /><g
     id="g9266"
     transform="matrix(0.53333333,0,0,0.53333333,-2.88,-2.6666666)"
     style="fill:#4e4f4b;fill-opacity:1"><path
       d="m 50.4,5 c -24.9,0 -45,20.1 -45,45 0,24.9 20.1,45 45,45 24.9,0 45,-20.1 45,-45 C 95.4,25.1 75.2,5 50.4,5 Z M 77.3,80.8 C 77.2,80.6 77.1,80.4 77,80.2 74.6,75.6 70.5,72.2 65.5,70.8 l -5.8,-1.7 c -2,-0.6 -3,-2.7 -2.4,-4.7 0.1,-0.4 0.4,-0.8 0.6,-1.1 l 4.2,-4.7 c 2.8,-3.1 4.1,-7.3 3.6,-11.4 L 65,41.5 C 64.5,37.2 62.1,33.3 58.4,30.9 l -0.1,0 C 53.4,27.8 47.1,27.8 42.2,31.1 l 0,0 c -3.4,2.3 -5.6,5.8 -6.2,9.8 l -0.9,6 c -0.7,4.3 0.6,8.7 3.5,12 l 4,4.4 c 0.3,0.3 0.5,0.7 0.6,1.1 0.7,1.9 -0.4,4.1 -2.4,4.7 L 35,70.8 c -4.9,1.5 -9.1,4.9 -11.5,9.4 -0.1,0.2 -0.2,0.4 -0.3,0.6 C 14.6,73.3 9.2,62.2 9.2,50 9.2,27.4 27.6,9 50.2,9 c 22.6,0 41,18.4 41,41 0.2,12.3 -5.3,23.3 -13.9,30.8 z"
       id="path9268"
       inkscape:connector-curvature="0"
       style="fill:#4e4f4b;fill-opacity:1" /></g></svg>